# Blender v2.78 (sub 0) OBJ File: ''
# www.blender.org
mtllib untitled.mtl
o Cylinder_Cylinder.002
v 0.000000 -1.000000 0.000000
v 0.000000 -1.000000 -1.000000
v 0.000000 1.000000 -1.000000
v 0.309017 -1.000000 -0.951057
v 0.309017 1.000000 -0.951057
v 0.587785 -1.000000 -0.809017
v 0.587785 1.000000 -0.809017
v 0.809017 -1.000000 -0.587785
v 0.809017 1.000000 -0.587785
v 0.951057 -1.000000 -0.309017
v 0.951057 1.000000 -0.309017
v 1.000000 -1.000000 0.000000
v 1.000000 1.000000 0.000000
v 0.951056 -1.000000 0.309017
v 0.951056 1.000000 0.309017
v 0.809017 -1.000000 0.587785
v 0.809017 1.000000 0.587785
v 0.587785 -1.000000 0.809017
v 0.587785 1.000000 0.809017
v 0.309017 -1.000000 0.951057
v 0.309017 1.000000 0.951057
v -0.000000 -1.000000 1.000000
v -0.000000 1.000000 1.000000
v -0.309017 -1.000000 0.951056
v -0.309017 1.000000 0.951056
v -0.587786 -1.000000 0.809017
v -0.587786 1.000000 0.809017
v -0.809017 -1.000000 0.587785
v -0.809017 1.000000 0.587785
v -0.951057 -1.000000 0.309016
v -0.951057 1.000000 0.309016
v -1.000000 -1.000000 -0.000001
v -1.000000 1.000000 -0.000001
v -0.951056 -1.000000 -0.309018
v -0.951056 1.000000 -0.309018
v -0.809016 -1.000000 -0.587786
v -0.809016 1.000000 -0.587786
v -0.587784 -1.000000 -0.809018
v -0.587784 1.000000 -0.809018
v -0.309016 -1.000000 -0.951057
v -0.309016 1.000000 -0.951057
v 0.000000 1.000000 -0.895687
v 0.276783 1.000000 -0.851849
v 0.526472 1.000000 -0.724626
v 0.724626 1.000000 -0.526472
v 0.851849 1.000000 -0.276783
v 0.895687 1.000000 0.000000
v 0.851849 1.000000 0.276783
v 0.724626 1.000000 0.526472
v 0.526472 1.000000 0.724626
v 0.276782 1.000000 0.851849
v -0.000000 1.000000 0.895687
v -0.276783 1.000000 0.851849
v -0.526472 1.000000 0.724626
v -0.724626 1.000000 0.526471
v -0.851849 1.000000 0.276782
v -0.895687 1.000000 -0.000001
v -0.851849 1.000000 -0.276783
v -0.724625 1.000000 -0.526473
v -0.526471 1.000000 -0.724627
v -0.276781 1.000000 -0.851849
v 0.000000 -0.830088 -0.895687
v 0.000000 -0.830088 -0.000000
v 0.276783 -0.830088 -0.851849
v 0.526472 -0.830088 -0.724626
v 0.724626 -0.830088 -0.526472
v 0.851849 -0.830088 -0.276783
v 0.895687 -0.830088 0.000000
v 0.851849 -0.830088 0.276783
v 0.724626 -0.830088 0.526472
v 0.526472 -0.830088 0.724626
v 0.276782 -0.830088 0.851849
v -0.000000 -0.830088 0.895687
v -0.276783 -0.830088 0.851849
v -0.526472 -0.830088 0.724626
v -0.724626 -0.830088 0.526471
v -0.851849 -0.830088 0.276782
v -0.895687 -0.830088 -0.000001
v -0.851849 -0.830088 -0.276783
v -0.724625 -0.830088 -0.526473
v -0.526471 -0.830088 -0.724627
v -0.276781 -0.830088 -0.851849
vn 0.0000 -1.0000 0.0000
vn 0.0000 1.0000 0.0000
vn 0.1564 0.0000 -0.9877
vn 0.4540 0.0000 -0.8910
vn 0.7071 0.0000 -0.7071
vn 0.8910 0.0000 -0.4540
vn 0.9877 0.0000 -0.1564
vn 0.9877 0.0000 0.1564
vn 0.8910 0.0000 0.4540
vn 0.7071 0.0000 0.7071
vn 0.4540 0.0000 0.8910
vn 0.1564 0.0000 0.9877
vn -0.1564 0.0000 0.9877
vn -0.4540 0.0000 0.8910
vn -0.7071 0.0000 0.7071
vn -0.8910 0.0000 0.4540
vn -0.9877 0.0000 0.1564
vn -0.9877 0.0000 -0.1564
vn -0.8910 0.0000 -0.4540
vn -0.7071 0.0000 -0.7071
vn -0.4540 0.0000 -0.8910
vn -0.1564 0.0000 -0.9877
usemtl None
s off
f 1//1 2//1 4//1
f 13//2 11//2 46//2 47//2
f 2//3 3//3 5//3 4//3
f 1//1 4//1 6//1
f 7//2 5//2 43//2 44//2
f 4//4 5//4 7//4 6//4
f 1//1 6//1 8//1
f 3//2 41//2 61//2 42//2
f 6//5 7//5 9//5 8//5
f 1//1 8//1 10//1
f 39//2 37//2 59//2 60//2
f 8//6 9//6 11//6 10//6
f 1//1 10//1 12//1
f 33//2 31//2 56//2 57//2
f 10//7 11//7 13//7 12//7
f 1//1 12//1 14//1
f 27//2 25//2 53//2 54//2
f 12//8 13//8 15//8 14//8
f 1//1 14//1 16//1
f 21//2 19//2 50//2 51//2
f 14//9 15//9 17//9 16//9
f 1//1 16//1 18//1
f 15//2 13//2 47//2 48//2
f 16//10 17//10 19//10 18//10
f 1//1 18//1 20//1
f 9//2 7//2 44//2 45//2
f 18//11 19//11 21//11 20//11
f 1//1 20//1 22//1
f 41//2 39//2 60//2 61//2
f 20//12 21//12 23//12 22//12
f 1//1 22//1 24//1
f 35//2 33//2 57//2 58//2
f 22//13 23//13 25//13 24//13
f 1//1 24//1 26//1
f 29//2 27//2 54//2 55//2
f 24//14 25//14 27//14 26//14
f 1//1 26//1 28//1
f 23//2 21//2 51//2 52//2
f 26//15 27//15 29//15 28//15
f 1//1 28//1 30//1
f 17//2 15//2 48//2 49//2
f 28//16 29//16 31//16 30//16
f 1//1 30//1 32//1
f 11//2 9//2 45//2 46//2
f 30//17 31//17 33//17 32//17
f 1//1 32//1 34//1
f 5//2 3//2 42//2 43//2
f 32//18 33//18 35//18 34//18
f 1//1 34//1 36//1
f 37//2 35//2 58//2 59//2
f 34//19 35//19 37//19 36//19
f 1//1 36//1 38//1
f 31//2 29//2 55//2 56//2
f 36//20 37//20 39//20 38//20
f 1//1 38//1 40//1
f 25//2 23//2 52//2 53//2
f 38//21 39//21 41//21 40//21
f 1//1 40//1 2//1
f 19//2 17//2 49//2 50//2
f 40//22 41//22 3//22 2//22
f 53//3 52//3 73//3 74//3
f 49//19 48//19 69//19 70//19
f 60//10 59//10 80//10 81//10
f 45//15 44//15 65//15 66//15
f 56//6 55//6 76//6 77//6
f 52//22 51//22 72//22 73//22
f 48//18 47//18 68//18 69//18
f 59//9 58//9 79//9 80//9
f 44//14 43//14 64//14 65//14
f 55//5 54//5 75//5 76//5
f 51//21 50//21 71//21 72//21
f 47//17 46//17 67//17 68//17
f 58//8 57//8 78//8 79//8
f 43//13 42//13 62//13 64//13
f 42//12 61//12 82//12 62//12
f 54//4 53//4 74//4 75//4
f 50//20 49//20 70//20 71//20
f 61//11 60//11 81//11 82//11
f 46//16 45//16 66//16 67//16
f 57//7 56//7 77//7 78//7
f 63//2 64//2 62//2
f 63//2 65//2 64//2
f 63//2 66//2 65//2
f 63//2 67//2 66//2
f 63//2 68//2 67//2
f 63//2 69//2 68//2
f 63//2 70//2 69//2
f 63//2 71//2 70//2
f 63//2 72//2 71//2
f 63//2 73//2 72//2
f 63//2 74//2 73//2
f 63//2 75//2 74//2
f 63//2 76//2 75//2
f 63//2 77//2 76//2
f 63//2 78//2 77//2
f 63//2 79//2 78//2
f 63//2 80//2 79//2
f 63//2 81//2 80//2
f 63//2 82//2 81//2
f 63//2 62//2 82//2
